<mxfile host="app.diagrams.net" modified="2023-11-02T18:12:40.748Z" agent="Mozilla/5.0 (Windows NT 10.0; Win64; x64) AppleWebKit/537.36 (KHTML, like Gecko) Chrome/118.0.0.0 Safari/537.36" etag="OGdZo28DEXUn32HjUtMT" version="22.0.8" type="github">
  <diagram name="Page-1" id="GPDJ5xunrmTlmQM7aKqc">
    <mxGraphModel dx="750" dy="387" grid="1" gridSize="10" guides="1" tooltips="1" connect="1" arrows="1" fold="1" page="1" pageScale="1" pageWidth="827" pageHeight="1169" math="0" shadow="0">
      <root>
        <mxCell id="0" />
        <mxCell id="1" parent="0" />
        <mxCell id="W61LWBA0hqPOYTBXHAXU-23" value="Учесник" style="whiteSpace=wrap;html=1;align=center;" parent="1" vertex="1">
          <mxGeometry x="364" y="90" width="100" height="40" as="geometry" />
        </mxCell>
        <mxCell id="W61LWBA0hqPOYTBXHAXU-38" value="" style="edgeStyle=orthogonalEdgeStyle;rounded=0;orthogonalLoop=1;jettySize=auto;html=1;entryX=0.676;entryY=-0.06;entryDx=0;entryDy=0;entryPerimeter=0;endArrow=none;endFill=0;" parent="1" source="W61LWBA0hqPOYTBXHAXU-24" target="W61LWBA0hqPOYTBXHAXU-23" edge="1">
          <mxGeometry relative="1" as="geometry">
            <Array as="points">
              <mxPoint x="450" y="70" />
              <mxPoint x="432" y="70" />
            </Array>
          </mxGeometry>
        </mxCell>
        <mxCell id="W61LWBA0hqPOYTBXHAXU-24" value="Име" style="ellipse;whiteSpace=wrap;html=1;align=center;" parent="1" vertex="1">
          <mxGeometry x="450" y="20" width="70" height="30" as="geometry" />
        </mxCell>
        <mxCell id="W61LWBA0hqPOYTBXHAXU-40" value="" style="edgeStyle=orthogonalEdgeStyle;rounded=0;orthogonalLoop=1;jettySize=auto;html=1;endArrow=none;endFill=0;" parent="1" source="W61LWBA0hqPOYTBXHAXU-25" target="W61LWBA0hqPOYTBXHAXU-23" edge="1">
          <mxGeometry relative="1" as="geometry" />
        </mxCell>
        <mxCell id="W61LWBA0hqPOYTBXHAXU-25" value="Презиме" style="ellipse;whiteSpace=wrap;html=1;align=center;" parent="1" vertex="1">
          <mxGeometry x="370" y="20" width="70" height="30" as="geometry" />
        </mxCell>
        <mxCell id="W61LWBA0hqPOYTBXHAXU-34" value="" style="edgeStyle=orthogonalEdgeStyle;rounded=0;orthogonalLoop=1;jettySize=auto;html=1;endArrow=none;endFill=0;exitX=0.36;exitY=1;exitDx=0;exitDy=0;exitPerimeter=0;" parent="1" source="W61LWBA0hqPOYTBXHAXU-26" edge="1">
          <mxGeometry relative="1" as="geometry">
            <mxPoint x="303" y="75" as="sourcePoint" />
            <mxPoint x="377" y="95" as="targetPoint" />
          </mxGeometry>
        </mxCell>
        <mxCell id="W61LWBA0hqPOYTBXHAXU-26" value="Пол" style="ellipse;whiteSpace=wrap;html=1;align=center;" parent="1" vertex="1">
          <mxGeometry x="310" y="40" width="60" height="30" as="geometry" />
        </mxCell>
        <mxCell id="W61LWBA0hqPOYTBXHAXU-35" value="" style="edgeStyle=orthogonalEdgeStyle;rounded=0;orthogonalLoop=1;jettySize=auto;html=1;endArrow=none;endFill=0;" parent="1" source="W61LWBA0hqPOYTBXHAXU-27" target="W61LWBA0hqPOYTBXHAXU-23" edge="1">
          <mxGeometry relative="1" as="geometry" />
        </mxCell>
        <mxCell id="W61LWBA0hqPOYTBXHAXU-27" value="дата на раѓање" style="ellipse;whiteSpace=wrap;html=1;align=center;" parent="1" vertex="1">
          <mxGeometry x="240" y="95" width="80" height="30" as="geometry" />
        </mxCell>
        <mxCell id="W61LWBA0hqPOYTBXHAXU-37" value="" style="edgeStyle=orthogonalEdgeStyle;rounded=0;orthogonalLoop=1;jettySize=auto;html=1;endArrow=none;endFill=0;" parent="1" source="W61LWBA0hqPOYTBXHAXU-28" edge="1">
          <mxGeometry relative="1" as="geometry">
            <mxPoint x="450" y="90" as="targetPoint" />
            <Array as="points">
              <mxPoint x="450" y="80" />
            </Array>
          </mxGeometry>
        </mxCell>
        <mxCell id="W61LWBA0hqPOYTBXHAXU-28" value="држава" style="ellipse;whiteSpace=wrap;html=1;align=center;" parent="1" vertex="1">
          <mxGeometry x="510" y="50" width="80" height="30" as="geometry" />
        </mxCell>
        <mxCell id="W61LWBA0hqPOYTBXHAXU-36" value="" style="edgeStyle=orthogonalEdgeStyle;rounded=0;orthogonalLoop=1;jettySize=auto;html=1;endArrow=none;endFill=0;" parent="1" source="W61LWBA0hqPOYTBXHAXU-29" target="W61LWBA0hqPOYTBXHAXU-23" edge="1">
          <mxGeometry relative="1" as="geometry">
            <Array as="points">
              <mxPoint x="470" y="115" />
              <mxPoint x="470" y="115" />
            </Array>
          </mxGeometry>
        </mxCell>
        <mxCell id="W61LWBA0hqPOYTBXHAXU-29" value="бр. пасош" style="ellipse;whiteSpace=wrap;html=1;align=center;fontStyle=4;" parent="1" vertex="1">
          <mxGeometry x="500" y="100" width="80" height="30" as="geometry" />
        </mxCell>
        <mxCell id="W61LWBA0hqPOYTBXHAXU-113" style="edgeStyle=orthogonalEdgeStyle;shape=connector;rounded=0;orthogonalLoop=1;jettySize=auto;html=1;labelBackgroundColor=default;strokeColor=default;align=center;verticalAlign=middle;fontFamily=Helvetica;fontSize=11;fontColor=default;endArrow=none;endFill=0;" parent="1" source="W61LWBA0hqPOYTBXHAXU-41" target="W61LWBA0hqPOYTBXHAXU-112" edge="1">
          <mxGeometry relative="1" as="geometry" />
        </mxCell>
        <mxCell id="W61LWBA0hqPOYTBXHAXU-133" style="edgeStyle=orthogonalEdgeStyle;shape=connector;rounded=0;orthogonalLoop=1;jettySize=auto;html=1;entryX=0.5;entryY=1;entryDx=0;entryDy=0;labelBackgroundColor=default;strokeColor=default;align=center;verticalAlign=middle;fontFamily=Helvetica;fontSize=11;fontColor=default;endArrow=none;endFill=0;" parent="1" source="W61LWBA0hqPOYTBXHAXU-41" target="W61LWBA0hqPOYTBXHAXU-51" edge="1">
          <mxGeometry relative="1" as="geometry" />
        </mxCell>
        <mxCell id="W61LWBA0hqPOYTBXHAXU-158" style="edgeStyle=orthogonalEdgeStyle;shape=connector;rounded=0;orthogonalLoop=1;jettySize=auto;html=1;entryX=0;entryY=0.5;entryDx=0;entryDy=0;labelBackgroundColor=default;strokeColor=default;align=center;verticalAlign=middle;fontFamily=Helvetica;fontSize=11;fontColor=default;endArrow=none;endFill=0;" parent="1" source="W61LWBA0hqPOYTBXHAXU-41" target="W61LWBA0hqPOYTBXHAXU-157" edge="1">
          <mxGeometry relative="1" as="geometry" />
        </mxCell>
        <mxCell id="W61LWBA0hqPOYTBXHAXU-188" style="edgeStyle=orthogonalEdgeStyle;shape=connector;rounded=0;orthogonalLoop=1;jettySize=auto;html=1;entryX=1;entryY=0;entryDx=0;entryDy=0;labelBackgroundColor=default;strokeColor=default;align=center;verticalAlign=middle;fontFamily=Helvetica;fontSize=11;fontColor=default;endArrow=none;endFill=0;" parent="1" source="W61LWBA0hqPOYTBXHAXU-41" target="W61LWBA0hqPOYTBXHAXU-184" edge="1">
          <mxGeometry relative="1" as="geometry">
            <Array as="points">
              <mxPoint x="414" y="320" />
              <mxPoint x="158" y="320" />
            </Array>
          </mxGeometry>
        </mxCell>
        <mxCell id="W61LWBA0hqPOYTBXHAXU-41" value="Играч" style="whiteSpace=wrap;html=1;align=center;" parent="1" vertex="1">
          <mxGeometry x="364" y="260" width="100" height="40" as="geometry" />
        </mxCell>
        <mxCell id="W61LWBA0hqPOYTBXHAXU-42" value="Тренер" style="whiteSpace=wrap;html=1;align=center;" parent="1" vertex="1">
          <mxGeometry x="80" y="210" width="100" height="40" as="geometry" />
        </mxCell>
        <mxCell id="W61LWBA0hqPOYTBXHAXU-53" style="edgeStyle=orthogonalEdgeStyle;rounded=0;orthogonalLoop=1;jettySize=auto;html=1;endArrow=none;endFill=0;entryX=1;entryY=0.5;entryDx=0;entryDy=0;" parent="1" source="W61LWBA0hqPOYTBXHAXU-55" target="W61LWBA0hqPOYTBXHAXU-51" edge="1">
          <mxGeometry relative="1" as="geometry">
            <mxPoint x="460" y="170" as="targetPoint" />
          </mxGeometry>
        </mxCell>
        <mxCell id="W61LWBA0hqPOYTBXHAXU-162" style="edgeStyle=orthogonalEdgeStyle;shape=link;rounded=0;orthogonalLoop=1;jettySize=auto;html=1;entryX=0;entryY=0;entryDx=0;entryDy=0;labelBackgroundColor=default;strokeColor=default;align=center;verticalAlign=middle;fontFamily=Helvetica;fontSize=11;fontColor=default;endArrow=none;endFill=0;" parent="1" source="W61LWBA0hqPOYTBXHAXU-43" target="W61LWBA0hqPOYTBXHAXU-157" edge="1">
          <mxGeometry relative="1" as="geometry">
            <Array as="points">
              <mxPoint x="690" y="281" />
            </Array>
          </mxGeometry>
        </mxCell>
        <mxCell id="W61LWBA0hqPOYTBXHAXU-43" value="Судија" style="whiteSpace=wrap;html=1;align=center;" parent="1" vertex="1">
          <mxGeometry x="640" y="220" width="100" height="40" as="geometry" />
        </mxCell>
        <mxCell id="W61LWBA0hqPOYTBXHAXU-45" style="edgeStyle=orthogonalEdgeStyle;rounded=0;orthogonalLoop=1;jettySize=auto;html=1;entryX=0.084;entryY=1;entryDx=0;entryDy=0;entryPerimeter=0;endArrow=none;endFill=0;" parent="1" source="W61LWBA0hqPOYTBXHAXU-42" target="W61LWBA0hqPOYTBXHAXU-23" edge="1">
          <mxGeometry relative="1" as="geometry" />
        </mxCell>
        <mxCell id="W61LWBA0hqPOYTBXHAXU-49" value="" style="ellipse;whiteSpace=wrap;html=1;aspect=fixed;" parent="1" vertex="1">
          <mxGeometry x="420" y="160" width="20" height="20" as="geometry" />
        </mxCell>
        <mxCell id="W61LWBA0hqPOYTBXHAXU-51" value="&lt;b&gt;d&lt;/b&gt;" style="text;html=1;strokeColor=none;fillColor=none;align=center;verticalAlign=middle;whiteSpace=wrap;rounded=0;" parent="1" vertex="1">
          <mxGeometry x="420" y="160" width="20" height="20" as="geometry" />
        </mxCell>
        <mxCell id="W61LWBA0hqPOYTBXHAXU-54" style="edgeStyle=orthogonalEdgeStyle;rounded=0;orthogonalLoop=1;jettySize=auto;html=1;entryX=0.9;entryY=1;entryDx=0;entryDy=0;entryPerimeter=0;endArrow=none;endFill=0;" parent="1" source="W61LWBA0hqPOYTBXHAXU-51" target="W61LWBA0hqPOYTBXHAXU-23" edge="1">
          <mxGeometry relative="1" as="geometry" />
        </mxCell>
        <mxCell id="W61LWBA0hqPOYTBXHAXU-56" value="" style="edgeStyle=orthogonalEdgeStyle;rounded=0;orthogonalLoop=1;jettySize=auto;html=1;endArrow=none;endFill=0;" parent="1" source="W61LWBA0hqPOYTBXHAXU-43" target="W61LWBA0hqPOYTBXHAXU-55" edge="1">
          <mxGeometry relative="1" as="geometry">
            <mxPoint x="460" y="170" as="targetPoint" />
            <mxPoint x="640" y="240" as="sourcePoint" />
          </mxGeometry>
        </mxCell>
        <mxCell id="W61LWBA0hqPOYTBXHAXU-55" value="" style="shape=requiredInterface;html=1;verticalLabelPosition=bottom;sketch=0;direction=east;" parent="1" vertex="1">
          <mxGeometry x="480" y="230" width="20" height="20" as="geometry" />
        </mxCell>
        <mxCell id="W61LWBA0hqPOYTBXHAXU-65" style="edgeStyle=orthogonalEdgeStyle;rounded=0;orthogonalLoop=1;jettySize=auto;html=1;entryX=0;entryY=0.5;entryDx=0;entryDy=0;endArrow=none;endFill=0;shape=link;" parent="1" source="W61LWBA0hqPOYTBXHAXU-64" target="W61LWBA0hqPOYTBXHAXU-41" edge="1">
          <mxGeometry relative="1" as="geometry" />
        </mxCell>
        <mxCell id="W61LWBA0hqPOYTBXHAXU-66" style="edgeStyle=orthogonalEdgeStyle;rounded=0;orthogonalLoop=1;jettySize=auto;html=1;exitX=0;exitY=0.5;exitDx=0;exitDy=0;entryX=0.75;entryY=1;entryDx=0;entryDy=0;endArrow=none;endFill=0;shape=link;" parent="1" source="W61LWBA0hqPOYTBXHAXU-64" target="W61LWBA0hqPOYTBXHAXU-42" edge="1">
          <mxGeometry relative="1" as="geometry" />
        </mxCell>
        <mxCell id="W61LWBA0hqPOYTBXHAXU-64" value="играч-тренер" style="shape=rhombus;perimeter=rhombusPerimeter;whiteSpace=wrap;html=1;align=center;" parent="1" vertex="1">
          <mxGeometry x="210" y="260" width="90" height="50" as="geometry" />
        </mxCell>
        <mxCell id="W61LWBA0hqPOYTBXHAXU-67" value="N" style="text;html=1;strokeColor=none;fillColor=none;align=center;verticalAlign=middle;whiteSpace=wrap;rounded=0;fontSize=11;fontFamily=Helvetica;fontColor=default;" parent="1" vertex="1">
          <mxGeometry x="160" y="250" width="60" height="30" as="geometry" />
        </mxCell>
        <mxCell id="W61LWBA0hqPOYTBXHAXU-68" value="M" style="text;html=1;strokeColor=none;fillColor=none;align=center;verticalAlign=middle;whiteSpace=wrap;rounded=0;fontSize=11;fontFamily=Helvetica;fontColor=default;" parent="1" vertex="1">
          <mxGeometry x="300" y="250" width="60" height="30" as="geometry" />
        </mxCell>
        <mxCell id="W61LWBA0hqPOYTBXHAXU-74" value="почеток на кариера" style="ellipse;whiteSpace=wrap;html=1;align=center;fontFamily=Helvetica;fontSize=11;fontColor=default;" parent="1" vertex="1">
          <mxGeometry x="370" y="350" width="66" height="30" as="geometry" />
        </mxCell>
        <mxCell id="tZ-yufHmO-T_GeRNX846-28" style="edgeStyle=orthogonalEdgeStyle;shape=connector;rounded=0;orthogonalLoop=1;jettySize=auto;html=1;entryX=0.25;entryY=1;entryDx=0;entryDy=0;labelBackgroundColor=default;strokeColor=default;align=center;verticalAlign=middle;fontFamily=Helvetica;fontSize=11;fontColor=default;endArrow=none;endFill=0;" edge="1" parent="1" source="W61LWBA0hqPOYTBXHAXU-78" target="tZ-yufHmO-T_GeRNX846-27">
          <mxGeometry relative="1" as="geometry" />
        </mxCell>
        <mxCell id="W61LWBA0hqPOYTBXHAXU-78" value="крај дата" style="ellipse;whiteSpace=wrap;html=1;align=center;fontFamily=Helvetica;fontSize=11;fontColor=default;" parent="1" vertex="1">
          <mxGeometry x="440" y="470" width="50" height="30" as="geometry" />
        </mxCell>
        <mxCell id="tZ-yufHmO-T_GeRNX846-29" style="edgeStyle=orthogonalEdgeStyle;shape=connector;rounded=0;orthogonalLoop=1;jettySize=auto;html=1;entryX=0.25;entryY=0;entryDx=0;entryDy=0;labelBackgroundColor=default;strokeColor=default;align=center;verticalAlign=middle;fontFamily=Helvetica;fontSize=11;fontColor=default;endArrow=none;endFill=0;" edge="1" parent="1" source="W61LWBA0hqPOYTBXHAXU-79" target="tZ-yufHmO-T_GeRNX846-27">
          <mxGeometry relative="1" as="geometry" />
        </mxCell>
        <mxCell id="W61LWBA0hqPOYTBXHAXU-79" value="поч. дата" style="ellipse;whiteSpace=wrap;html=1;align=center;fontFamily=Helvetica;fontSize=11;fontColor=default;" parent="1" vertex="1">
          <mxGeometry x="395" y="390" width="50" height="30" as="geometry" />
        </mxCell>
        <mxCell id="W61LWBA0hqPOYTBXHAXU-83" style="edgeStyle=orthogonalEdgeStyle;shape=connector;rounded=0;orthogonalLoop=1;jettySize=auto;html=1;entryX=0;entryY=0.5;entryDx=0;entryDy=0;labelBackgroundColor=default;strokeColor=default;align=center;verticalAlign=middle;fontFamily=Helvetica;fontSize=11;fontColor=default;endArrow=none;endFill=0;" parent="1" source="W61LWBA0hqPOYTBXHAXU-82" target="W61LWBA0hqPOYTBXHAXU-42" edge="1">
          <mxGeometry relative="1" as="geometry" />
        </mxCell>
        <mxCell id="W61LWBA0hqPOYTBXHAXU-82" value="играчи" style="ellipse;shape=doubleEllipse;margin=3;whiteSpace=wrap;html=1;align=center;fontFamily=Helvetica;fontSize=11;fontColor=default;" parent="1" vertex="1">
          <mxGeometry x="10" y="150" width="100" height="40" as="geometry" />
        </mxCell>
        <mxCell id="W61LWBA0hqPOYTBXHAXU-85" value="" style="edgeStyle=orthogonalEdgeStyle;shape=connector;rounded=0;orthogonalLoop=1;jettySize=auto;html=1;labelBackgroundColor=default;strokeColor=default;align=center;verticalAlign=middle;fontFamily=Helvetica;fontSize=11;fontColor=default;endArrow=none;endFill=0;" parent="1" source="W61LWBA0hqPOYTBXHAXU-84" target="W61LWBA0hqPOYTBXHAXU-43" edge="1">
          <mxGeometry relative="1" as="geometry" />
        </mxCell>
        <mxCell id="W61LWBA0hqPOYTBXHAXU-84" value="искуство" style="ellipse;whiteSpace=wrap;html=1;align=center;fontFamily=Helvetica;fontSize=11;fontColor=default;" parent="1" vertex="1">
          <mxGeometry x="640" y="150" width="100" height="40" as="geometry" />
        </mxCell>
        <mxCell id="W61LWBA0hqPOYTBXHAXU-86" value="Турнир" style="whiteSpace=wrap;html=1;align=center;fontFamily=Helvetica;fontSize=11;fontColor=default;" parent="1" vertex="1">
          <mxGeometry x="570" y="590" width="100" height="40" as="geometry" />
        </mxCell>
        <mxCell id="W61LWBA0hqPOYTBXHAXU-111" style="edgeStyle=orthogonalEdgeStyle;shape=connector;rounded=0;orthogonalLoop=1;jettySize=auto;html=1;entryX=1;entryY=0.5;entryDx=0;entryDy=0;labelBackgroundColor=default;strokeColor=default;align=center;verticalAlign=middle;fontFamily=Helvetica;fontSize=11;fontColor=default;endArrow=none;endFill=0;" parent="1" source="W61LWBA0hqPOYTBXHAXU-110" target="W61LWBA0hqPOYTBXHAXU-86" edge="1">
          <mxGeometry relative="1" as="geometry" />
        </mxCell>
        <mxCell id="W61LWBA0hqPOYTBXHAXU-110" value="&lt;u&gt;име&lt;/u&gt;" style="ellipse;whiteSpace=wrap;html=1;fontFamily=Helvetica;fontSize=11;fontColor=default;" parent="1" vertex="1">
          <mxGeometry x="655" y="650" width="70" height="30" as="geometry" />
        </mxCell>
        <mxCell id="W61LWBA0hqPOYTBXHAXU-112" value="најдобар играч на" style="rhombus;whiteSpace=wrap;html=1;fontFamily=Helvetica;fontSize=11;fontColor=default;" parent="1" vertex="1">
          <mxGeometry x="560" y="300" width="100" height="80" as="geometry" />
        </mxCell>
        <mxCell id="W61LWBA0hqPOYTBXHAXU-114" style="edgeStyle=orthogonalEdgeStyle;shape=link;rounded=0;orthogonalLoop=1;jettySize=auto;html=1;entryX=0.324;entryY=-0.02;entryDx=0;entryDy=0;entryPerimeter=0;labelBackgroundColor=default;strokeColor=default;align=center;verticalAlign=middle;fontFamily=Helvetica;fontSize=11;fontColor=default;endArrow=none;endFill=0;" parent="1" source="W61LWBA0hqPOYTBXHAXU-112" target="W61LWBA0hqPOYTBXHAXU-86" edge="1">
          <mxGeometry relative="1" as="geometry" />
        </mxCell>
        <mxCell id="W61LWBA0hqPOYTBXHAXU-115" value="1" style="text;html=1;strokeColor=none;fillColor=none;align=center;verticalAlign=middle;whiteSpace=wrap;rounded=0;fontSize=11;fontFamily=Helvetica;fontColor=default;" parent="1" vertex="1">
          <mxGeometry x="510" y="300" width="30" height="30" as="geometry" />
        </mxCell>
        <mxCell id="W61LWBA0hqPOYTBXHAXU-116" value="N" style="text;html=1;strokeColor=none;fillColor=none;align=center;verticalAlign=middle;whiteSpace=wrap;rounded=0;fontSize=11;fontFamily=Helvetica;fontColor=default;" parent="1" vertex="1">
          <mxGeometry x="580" y="440" width="40" height="20" as="geometry" />
        </mxCell>
        <mxCell id="W61LWBA0hqPOYTBXHAXU-118" style="edgeStyle=orthogonalEdgeStyle;shape=connector;rounded=0;orthogonalLoop=1;jettySize=auto;html=1;entryX=1;entryY=0.5;entryDx=0;entryDy=0;labelBackgroundColor=default;strokeColor=default;align=center;verticalAlign=middle;fontFamily=Helvetica;fontSize=11;fontColor=default;endArrow=none;endFill=0;" parent="1" source="W61LWBA0hqPOYTBXHAXU-117" target="W61LWBA0hqPOYTBXHAXU-112" edge="1">
          <mxGeometry relative="1" as="geometry" />
        </mxCell>
        <mxCell id="W61LWBA0hqPOYTBXHAXU-117" value="број на победи" style="ellipse;whiteSpace=wrap;html=1;fontFamily=Helvetica;fontSize=11;fontColor=default;" parent="1" vertex="1">
          <mxGeometry x="630" y="370" width="70" height="50" as="geometry" />
        </mxCell>
        <mxCell id="W61LWBA0hqPOYTBXHAXU-171" style="edgeStyle=orthogonalEdgeStyle;shape=connector;rounded=0;orthogonalLoop=1;jettySize=auto;html=1;entryX=0.5;entryY=0;entryDx=0;entryDy=0;labelBackgroundColor=default;strokeColor=default;align=center;verticalAlign=middle;fontFamily=Helvetica;fontSize=11;fontColor=default;endArrow=none;endFill=0;" parent="1" source="W61LWBA0hqPOYTBXHAXU-119" target="W61LWBA0hqPOYTBXHAXU-121" edge="1">
          <mxGeometry relative="1" as="geometry" />
        </mxCell>
        <mxCell id="W61LWBA0hqPOYTBXHAXU-119" value="Терен" style="whiteSpace=wrap;html=1;align=center;fontFamily=Helvetica;fontSize=11;fontColor=default;" parent="1" vertex="1">
          <mxGeometry x="220" y="530" width="100" height="40" as="geometry" />
        </mxCell>
        <mxCell id="W61LWBA0hqPOYTBXHAXU-120" value="Бр. седишта" style="ellipse;whiteSpace=wrap;html=1;align=center;fontFamily=Helvetica;fontSize=11;fontColor=default;" parent="1" vertex="1">
          <mxGeometry x="290" y="475" width="70" height="30" as="geometry" />
        </mxCell>
        <mxCell id="W61LWBA0hqPOYTBXHAXU-121" value="Тип" style="ellipse;whiteSpace=wrap;html=1;align=center;fontFamily=Helvetica;fontSize=11;fontColor=default;" parent="1" vertex="1">
          <mxGeometry x="265" y="590" width="70" height="30" as="geometry" />
        </mxCell>
        <mxCell id="W61LWBA0hqPOYTBXHAXU-123" style="edgeStyle=orthogonalEdgeStyle;shape=connector;rounded=0;orthogonalLoop=1;jettySize=auto;html=1;entryX=0;entryY=0.25;entryDx=0;entryDy=0;labelBackgroundColor=default;strokeColor=default;align=center;verticalAlign=middle;fontFamily=Helvetica;fontSize=11;fontColor=default;endArrow=none;endFill=0;" parent="1" source="W61LWBA0hqPOYTBXHAXU-122" target="W61LWBA0hqPOYTBXHAXU-119" edge="1">
          <mxGeometry relative="1" as="geometry" />
        </mxCell>
        <mxCell id="W61LWBA0hqPOYTBXHAXU-122" value="&lt;u&gt;Име&lt;/u&gt;" style="ellipse;whiteSpace=wrap;html=1;align=center;fontFamily=Helvetica;fontSize=11;fontColor=default;" parent="1" vertex="1">
          <mxGeometry x="180" y="570" width="70" height="30" as="geometry" />
        </mxCell>
        <mxCell id="W61LWBA0hqPOYTBXHAXU-125" style="edgeStyle=orthogonalEdgeStyle;shape=connector;rounded=0;orthogonalLoop=1;jettySize=auto;html=1;entryX=0.576;entryY=-0.095;entryDx=0;entryDy=0;entryPerimeter=0;labelBackgroundColor=default;strokeColor=default;align=center;verticalAlign=middle;fontFamily=Helvetica;fontSize=11;fontColor=default;endArrow=none;endFill=0;" parent="1" source="W61LWBA0hqPOYTBXHAXU-120" target="W61LWBA0hqPOYTBXHAXU-119" edge="1">
          <mxGeometry relative="1" as="geometry" />
        </mxCell>
        <mxCell id="W61LWBA0hqPOYTBXHAXU-127" style="edgeStyle=orthogonalEdgeStyle;shape=link;rounded=0;orthogonalLoop=1;jettySize=auto;html=1;entryX=0;entryY=0.5;entryDx=0;entryDy=0;labelBackgroundColor=default;strokeColor=default;align=center;verticalAlign=middle;fontFamily=Helvetica;fontSize=11;fontColor=default;endArrow=none;endFill=0;" parent="1" source="W61LWBA0hqPOYTBXHAXU-126" target="W61LWBA0hqPOYTBXHAXU-86" edge="1">
          <mxGeometry relative="1" as="geometry" />
        </mxCell>
        <mxCell id="W61LWBA0hqPOYTBXHAXU-128" style="edgeStyle=orthogonalEdgeStyle;shape=connector;rounded=0;orthogonalLoop=1;jettySize=auto;html=1;entryX=1;entryY=0.75;entryDx=0;entryDy=0;labelBackgroundColor=default;strokeColor=default;align=center;verticalAlign=middle;fontFamily=Helvetica;fontSize=11;fontColor=default;endArrow=none;endFill=0;" parent="1" source="W61LWBA0hqPOYTBXHAXU-126" target="W61LWBA0hqPOYTBXHAXU-119" edge="1">
          <mxGeometry relative="1" as="geometry" />
        </mxCell>
        <mxCell id="W61LWBA0hqPOYTBXHAXU-126" value="се оддржува на" style="shape=rhombus;perimeter=rhombusPerimeter;whiteSpace=wrap;html=1;align=center;fontFamily=Helvetica;fontSize=11;fontColor=default;" parent="1" vertex="1">
          <mxGeometry x="364" y="475" width="100" height="70" as="geometry" />
        </mxCell>
        <mxCell id="W61LWBA0hqPOYTBXHAXU-129" value="N" style="text;html=1;strokeColor=none;fillColor=none;align=center;verticalAlign=middle;whiteSpace=wrap;rounded=0;fontSize=11;fontFamily=Helvetica;fontColor=default;" parent="1" vertex="1">
          <mxGeometry x="480" y="510" width="30" height="20" as="geometry" />
        </mxCell>
        <mxCell id="W61LWBA0hqPOYTBXHAXU-130" value="M" style="text;html=1;strokeColor=none;fillColor=none;align=center;verticalAlign=middle;whiteSpace=wrap;rounded=0;fontSize=11;fontFamily=Helvetica;fontColor=default;" parent="1" vertex="1">
          <mxGeometry x="334" y="530" width="30" height="20" as="geometry" />
        </mxCell>
        <mxCell id="W61LWBA0hqPOYTBXHAXU-132" value="" style="shape=requiredInterface;html=1;verticalLabelPosition=bottom;sketch=0;direction=south;" parent="1" vertex="1">
          <mxGeometry x="404" y="222.5" width="20" height="15" as="geometry" />
        </mxCell>
        <mxCell id="W61LWBA0hqPOYTBXHAXU-141" style="edgeStyle=orthogonalEdgeStyle;shape=connector;rounded=0;orthogonalLoop=1;jettySize=auto;html=1;entryX=0;entryY=0.5;entryDx=0;entryDy=0;labelBackgroundColor=default;strokeColor=default;align=center;verticalAlign=middle;fontFamily=Helvetica;fontSize=11;fontColor=default;endArrow=none;endFill=0;" parent="1" source="W61LWBA0hqPOYTBXHAXU-136" edge="1">
          <mxGeometry relative="1" as="geometry">
            <mxPoint x="210" y="665" as="targetPoint" />
          </mxGeometry>
        </mxCell>
        <mxCell id="W61LWBA0hqPOYTBXHAXU-136" value="период" style="ellipse;whiteSpace=wrap;html=1;align=center;fontFamily=Helvetica;fontSize=11;fontColor=default;" parent="1" vertex="1">
          <mxGeometry x="135" y="720" width="75" height="30" as="geometry" />
        </mxCell>
        <mxCell id="W61LWBA0hqPOYTBXHAXU-139" style="edgeStyle=orthogonalEdgeStyle;shape=connector;rounded=0;orthogonalLoop=1;jettySize=auto;html=1;entryX=0;entryY=1;entryDx=0;entryDy=0;labelBackgroundColor=default;strokeColor=default;align=center;verticalAlign=middle;fontFamily=Helvetica;fontSize=11;fontColor=default;endArrow=none;endFill=0;" parent="1" source="W61LWBA0hqPOYTBXHAXU-137" target="W61LWBA0hqPOYTBXHAXU-136" edge="1">
          <mxGeometry relative="1" as="geometry" />
        </mxCell>
        <mxCell id="W61LWBA0hqPOYTBXHAXU-137" value="од" style="ellipse;whiteSpace=wrap;html=1;align=center;fontFamily=Helvetica;fontSize=11;fontColor=default;" parent="1" vertex="1">
          <mxGeometry x="80" y="770" width="60" height="30" as="geometry" />
        </mxCell>
        <mxCell id="W61LWBA0hqPOYTBXHAXU-140" style="edgeStyle=orthogonalEdgeStyle;shape=connector;rounded=0;orthogonalLoop=1;jettySize=auto;html=1;entryX=1;entryY=1;entryDx=0;entryDy=0;labelBackgroundColor=default;strokeColor=default;align=center;verticalAlign=middle;fontFamily=Helvetica;fontSize=11;fontColor=default;endArrow=none;endFill=0;" parent="1" source="W61LWBA0hqPOYTBXHAXU-138" target="W61LWBA0hqPOYTBXHAXU-136" edge="1">
          <mxGeometry relative="1" as="geometry" />
        </mxCell>
        <mxCell id="W61LWBA0hqPOYTBXHAXU-138" value="до" style="ellipse;whiteSpace=wrap;html=1;align=center;fontFamily=Helvetica;fontSize=11;fontColor=default;" parent="1" vertex="1">
          <mxGeometry x="190" y="770" width="60" height="30" as="geometry" />
        </mxCell>
        <mxCell id="W61LWBA0hqPOYTBXHAXU-145" value="година на оддржување" style="shape=ext;margin=3;double=1;whiteSpace=wrap;html=1;align=center;fontFamily=Helvetica;fontSize=11;fontColor=default;" parent="1" vertex="1">
          <mxGeometry x="210" y="640" width="100" height="40" as="geometry" />
        </mxCell>
        <mxCell id="W61LWBA0hqPOYTBXHAXU-147" style="edgeStyle=orthogonalEdgeStyle;shape=link;rounded=0;orthogonalLoop=1;jettySize=auto;html=1;entryX=0;entryY=0.75;entryDx=0;entryDy=0;labelBackgroundColor=default;strokeColor=default;align=center;verticalAlign=middle;fontFamily=Helvetica;fontSize=11;fontColor=default;endArrow=none;endFill=0;" parent="1" source="W61LWBA0hqPOYTBXHAXU-146" target="W61LWBA0hqPOYTBXHAXU-86" edge="1">
          <mxGeometry relative="1" as="geometry" />
        </mxCell>
        <mxCell id="W61LWBA0hqPOYTBXHAXU-148" style="edgeStyle=orthogonalEdgeStyle;shape=connector;rounded=0;orthogonalLoop=1;jettySize=auto;html=1;entryX=1;entryY=0.5;entryDx=0;entryDy=0;labelBackgroundColor=default;strokeColor=default;align=center;verticalAlign=middle;fontFamily=Helvetica;fontSize=11;fontColor=default;endArrow=none;endFill=0;" parent="1" source="W61LWBA0hqPOYTBXHAXU-146" target="W61LWBA0hqPOYTBXHAXU-145" edge="1">
          <mxGeometry relative="1" as="geometry" />
        </mxCell>
        <mxCell id="W61LWBA0hqPOYTBXHAXU-146" value="се оддржал" style="shape=rhombus;perimeter=rhombusPerimeter;whiteSpace=wrap;html=1;align=center;fontFamily=Helvetica;fontSize=11;fontColor=default;" parent="1" vertex="1">
          <mxGeometry x="370" y="595" width="100" height="50" as="geometry" />
        </mxCell>
        <mxCell id="W61LWBA0hqPOYTBXHAXU-149" value="1" style="text;html=1;strokeColor=none;fillColor=none;align=center;verticalAlign=middle;whiteSpace=wrap;rounded=0;fontSize=11;fontFamily=Helvetica;fontColor=default;" parent="1" vertex="1">
          <mxGeometry x="310" y="620" width="30" height="20" as="geometry" />
        </mxCell>
        <mxCell id="W61LWBA0hqPOYTBXHAXU-150" value="N" style="text;html=1;strokeColor=none;fillColor=none;align=center;verticalAlign=middle;whiteSpace=wrap;rounded=0;fontSize=11;fontFamily=Helvetica;fontColor=default;" parent="1" vertex="1">
          <mxGeometry x="490" y="600" width="30" height="20" as="geometry" />
        </mxCell>
        <mxCell id="W61LWBA0hqPOYTBXHAXU-153" style="edgeStyle=orthogonalEdgeStyle;shape=link;rounded=0;orthogonalLoop=1;jettySize=auto;html=1;entryX=1;entryY=0.5;entryDx=0;entryDy=0;labelBackgroundColor=default;strokeColor=default;align=center;verticalAlign=middle;fontFamily=Helvetica;fontSize=11;fontColor=default;endArrow=none;endFill=0;" parent="1" source="W61LWBA0hqPOYTBXHAXU-151" target="W61LWBA0hqPOYTBXHAXU-152" edge="1">
          <mxGeometry relative="1" as="geometry" />
        </mxCell>
        <mxCell id="W61LWBA0hqPOYTBXHAXU-151" value="Натпревар" style="whiteSpace=wrap;html=1;align=center;fontFamily=Helvetica;fontSize=11;fontColor=default;" parent="1" vertex="1">
          <mxGeometry x="720" y="790" width="100" height="40" as="geometry" />
        </mxCell>
        <mxCell id="W61LWBA0hqPOYTBXHAXU-154" style="edgeStyle=orthogonalEdgeStyle;shape=connector;rounded=0;orthogonalLoop=1;jettySize=auto;html=1;exitX=0;exitY=0.5;exitDx=0;exitDy=0;entryX=1;entryY=0.75;entryDx=0;entryDy=0;labelBackgroundColor=default;strokeColor=default;align=center;verticalAlign=middle;fontFamily=Helvetica;fontSize=11;fontColor=default;endArrow=none;endFill=0;" parent="1" source="W61LWBA0hqPOYTBXHAXU-152" target="W61LWBA0hqPOYTBXHAXU-145" edge="1">
          <mxGeometry relative="1" as="geometry" />
        </mxCell>
        <mxCell id="W61LWBA0hqPOYTBXHAXU-152" value="се оддржал за време на" style="shape=rhombus;perimeter=rhombusPerimeter;whiteSpace=wrap;html=1;align=center;fontFamily=Helvetica;fontSize=11;fontColor=default;" parent="1" vertex="1">
          <mxGeometry x="394" y="770" width="106" height="80" as="geometry" />
        </mxCell>
        <mxCell id="W61LWBA0hqPOYTBXHAXU-155" value="N" style="text;html=1;strokeColor=none;fillColor=none;align=center;verticalAlign=middle;whiteSpace=wrap;rounded=0;fontSize=11;fontFamily=Helvetica;fontColor=default;" parent="1" vertex="1">
          <mxGeometry x="520" y="790" width="30" height="20" as="geometry" />
        </mxCell>
        <mxCell id="W61LWBA0hqPOYTBXHAXU-156" value="1" style="text;html=1;strokeColor=none;fillColor=none;align=center;verticalAlign=middle;whiteSpace=wrap;rounded=0;fontSize=11;fontFamily=Helvetica;fontColor=default;" parent="1" vertex="1">
          <mxGeometry x="350" y="735" width="30" height="20" as="geometry" />
        </mxCell>
        <mxCell id="W61LWBA0hqPOYTBXHAXU-157" value="учесник на" style="rhombus;whiteSpace=wrap;html=1;fontFamily=Helvetica;fontSize=11;fontColor=default;" parent="1" vertex="1">
          <mxGeometry x="700" y="267.5" width="90" height="52.5" as="geometry" />
        </mxCell>
        <mxCell id="W61LWBA0hqPOYTBXHAXU-159" style="edgeStyle=orthogonalEdgeStyle;shape=link;rounded=0;orthogonalLoop=1;jettySize=auto;html=1;labelBackgroundColor=default;strokeColor=default;align=center;verticalAlign=middle;fontFamily=Helvetica;fontSize=11;fontColor=default;endArrow=none;endFill=0;entryX=1;entryY=0.5;entryDx=0;entryDy=0;" parent="1" target="W61LWBA0hqPOYTBXHAXU-157" edge="1">
          <mxGeometry relative="1" as="geometry">
            <mxPoint x="803.22" y="790" as="sourcePoint" />
            <mxPoint x="800" y="300" as="targetPoint" />
          </mxGeometry>
        </mxCell>
        <mxCell id="W61LWBA0hqPOYTBXHAXU-160" value="M" style="text;html=1;strokeColor=none;fillColor=none;align=center;verticalAlign=middle;whiteSpace=wrap;rounded=0;fontSize=11;fontFamily=Helvetica;fontColor=default;" parent="1" vertex="1">
          <mxGeometry x="615" y="275" width="35" height="20" as="geometry" />
        </mxCell>
        <mxCell id="W61LWBA0hqPOYTBXHAXU-161" value="N" style="text;html=1;strokeColor=none;fillColor=none;align=center;verticalAlign=middle;whiteSpace=wrap;rounded=0;fontSize=11;fontFamily=Helvetica;fontColor=default;" parent="1" vertex="1">
          <mxGeometry x="770" y="395" width="35" height="20" as="geometry" />
        </mxCell>
        <mxCell id="W61LWBA0hqPOYTBXHAXU-163" value="1" style="text;html=1;strokeColor=none;fillColor=none;align=center;verticalAlign=middle;whiteSpace=wrap;rounded=0;fontSize=11;fontFamily=Helvetica;fontColor=default;" parent="1" vertex="1">
          <mxGeometry x="690" y="260" width="15" height="20" as="geometry" />
        </mxCell>
        <mxCell id="W61LWBA0hqPOYTBXHAXU-169" style="edgeStyle=orthogonalEdgeStyle;shape=connector;rounded=0;orthogonalLoop=1;jettySize=auto;html=1;labelBackgroundColor=default;strokeColor=default;align=center;verticalAlign=middle;fontFamily=Helvetica;fontSize=11;fontColor=default;endArrow=none;endFill=0;" parent="1" source="W61LWBA0hqPOYTBXHAXU-164" target="W61LWBA0hqPOYTBXHAXU-157" edge="1">
          <mxGeometry relative="1" as="geometry">
            <Array as="points">
              <mxPoint x="788" y="159" />
              <mxPoint x="780" y="159" />
            </Array>
          </mxGeometry>
        </mxCell>
        <mxCell id="W61LWBA0hqPOYTBXHAXU-164" value="време почеток" style="ellipse;whiteSpace=wrap;html=1;align=center;fontFamily=Helvetica;fontSize=11;fontColor=default;" parent="1" vertex="1">
          <mxGeometry x="757.5" y="20" width="60" height="30" as="geometry" />
        </mxCell>
        <mxCell id="W61LWBA0hqPOYTBXHAXU-168" style="edgeStyle=orthogonalEdgeStyle;shape=connector;rounded=0;orthogonalLoop=1;jettySize=auto;html=1;entryX=1;entryY=0;entryDx=0;entryDy=0;labelBackgroundColor=default;strokeColor=default;align=center;verticalAlign=middle;fontFamily=Helvetica;fontSize=11;fontColor=default;endArrow=none;endFill=0;" parent="1" source="W61LWBA0hqPOYTBXHAXU-165" target="W61LWBA0hqPOYTBXHAXU-157" edge="1">
          <mxGeometry relative="1" as="geometry">
            <Array as="points">
              <mxPoint x="710" y="90" />
              <mxPoint x="768" y="90" />
            </Array>
          </mxGeometry>
        </mxCell>
        <mxCell id="W61LWBA0hqPOYTBXHAXU-165" value="&lt;span style=&quot;border-bottom: 1px dotted&quot;&gt;време крај&lt;/span&gt;" style="ellipse;whiteSpace=wrap;html=1;align=center;fontFamily=Helvetica;fontSize=11;fontColor=default;" parent="1" vertex="1">
          <mxGeometry x="680" y="40" width="60" height="30" as="geometry" />
        </mxCell>
        <mxCell id="W61LWBA0hqPOYTBXHAXU-167" style="edgeStyle=orthogonalEdgeStyle;shape=connector;rounded=0;orthogonalLoop=1;jettySize=auto;html=1;entryX=0.611;entryY=0.238;entryDx=0;entryDy=0;labelBackgroundColor=default;strokeColor=default;align=center;verticalAlign=middle;fontFamily=Helvetica;fontSize=11;fontColor=default;endArrow=none;endFill=0;entryPerimeter=0;" parent="1" target="W61LWBA0hqPOYTBXHAXU-157" edge="1">
          <mxGeometry relative="1" as="geometry">
            <mxPoint x="720" y="125" as="sourcePoint" />
            <mxPoint x="755" y="267.5" as="targetPoint" />
            <Array as="points">
              <mxPoint x="721" y="125" />
              <mxPoint x="721" y="140" />
              <mxPoint x="755" y="140" />
            </Array>
          </mxGeometry>
        </mxCell>
        <mxCell id="W61LWBA0hqPOYTBXHAXU-166" value="&lt;span style=&quot;border-bottom: 1px dotted&quot;&gt;резултат&lt;/span&gt;" style="ellipse;whiteSpace=wrap;html=1;align=center;fontFamily=Helvetica;fontSize=11;fontColor=default;" parent="1" vertex="1">
          <mxGeometry x="680" y="95" width="60" height="30" as="geometry" />
        </mxCell>
        <mxCell id="W61LWBA0hqPOYTBXHAXU-170" style="edgeStyle=orthogonalEdgeStyle;shape=connector;rounded=0;orthogonalLoop=1;jettySize=auto;html=1;entryX=0.606;entryY=0.053;entryDx=0;entryDy=0;entryPerimeter=0;labelBackgroundColor=default;strokeColor=default;align=center;verticalAlign=middle;fontFamily=Helvetica;fontSize=11;fontColor=default;endArrow=none;endFill=0;" parent="1" source="W61LWBA0hqPOYTBXHAXU-41" target="W61LWBA0hqPOYTBXHAXU-74" edge="1">
          <mxGeometry relative="1" as="geometry" />
        </mxCell>
        <mxCell id="W61LWBA0hqPOYTBXHAXU-174" style="edgeStyle=orthogonalEdgeStyle;shape=connector;rounded=0;orthogonalLoop=1;jettySize=auto;html=1;entryX=0.25;entryY=1;entryDx=0;entryDy=0;labelBackgroundColor=default;strokeColor=default;align=center;verticalAlign=middle;fontFamily=Helvetica;fontSize=11;fontColor=default;endArrow=none;endFill=0;" parent="1" source="W61LWBA0hqPOYTBXHAXU-173" target="W61LWBA0hqPOYTBXHAXU-41" edge="1">
          <mxGeometry relative="1" as="geometry" />
        </mxCell>
        <mxCell id="W61LWBA0hqPOYTBXHAXU-175" style="edgeStyle=orthogonalEdgeStyle;shape=connector;rounded=0;orthogonalLoop=1;jettySize=auto;html=1;entryX=0;entryY=0.75;entryDx=0;entryDy=0;labelBackgroundColor=default;strokeColor=default;align=center;verticalAlign=middle;fontFamily=Helvetica;fontSize=11;fontColor=default;endArrow=none;endFill=0;" parent="1" source="W61LWBA0hqPOYTBXHAXU-173" target="W61LWBA0hqPOYTBXHAXU-41" edge="1">
          <mxGeometry relative="1" as="geometry">
            <Array as="points">
              <mxPoint x="360" y="320" />
              <mxPoint x="360" y="300" />
              <mxPoint x="344" y="300" />
              <mxPoint x="344" y="290" />
            </Array>
          </mxGeometry>
        </mxCell>
        <mxCell id="W61LWBA0hqPOYTBXHAXU-173" value="H2H" style="shape=rhombus;perimeter=rhombusPerimeter;whiteSpace=wrap;html=1;align=center;fontFamily=Helvetica;fontSize=11;fontColor=default;" parent="1" vertex="1">
          <mxGeometry x="300" y="395" width="60" height="45" as="geometry" />
        </mxCell>
        <mxCell id="W61LWBA0hqPOYTBXHAXU-176" value="1" style="text;html=1;strokeColor=none;fillColor=none;align=center;verticalAlign=middle;whiteSpace=wrap;rounded=0;fontSize=11;fontFamily=Helvetica;fontColor=default;" parent="1" vertex="1">
          <mxGeometry x="322.5" y="307.5" width="15" height="15" as="geometry" />
        </mxCell>
        <mxCell id="W61LWBA0hqPOYTBXHAXU-177" value="1" style="text;html=1;strokeColor=none;fillColor=none;align=center;verticalAlign=middle;whiteSpace=wrap;rounded=0;fontSize=11;fontFamily=Helvetica;fontColor=default;" parent="1" vertex="1">
          <mxGeometry x="370" y="325" width="15" height="15" as="geometry" />
        </mxCell>
        <mxCell id="W61LWBA0hqPOYTBXHAXU-183" style="edgeStyle=orthogonalEdgeStyle;shape=connector;rounded=0;orthogonalLoop=1;jettySize=auto;html=1;entryX=0;entryY=0;entryDx=0;entryDy=0;labelBackgroundColor=default;strokeColor=default;align=center;verticalAlign=middle;fontFamily=Helvetica;fontSize=11;fontColor=default;endArrow=none;endFill=0;" parent="1" source="W61LWBA0hqPOYTBXHAXU-180" target="W61LWBA0hqPOYTBXHAXU-173" edge="1">
          <mxGeometry relative="1" as="geometry" />
        </mxCell>
        <mxCell id="W61LWBA0hqPOYTBXHAXU-180" value="победи И1" style="ellipse;whiteSpace=wrap;html=1;align=center;fontFamily=Helvetica;fontSize=11;fontColor=default;" parent="1" vertex="1">
          <mxGeometry x="295" y="365" width="60" height="25" as="geometry" />
        </mxCell>
        <mxCell id="W61LWBA0hqPOYTBXHAXU-185" style="edgeStyle=orthogonalEdgeStyle;shape=connector;rounded=0;orthogonalLoop=1;jettySize=auto;html=1;entryX=1;entryY=1;entryDx=0;entryDy=0;labelBackgroundColor=default;strokeColor=default;align=center;verticalAlign=middle;fontFamily=Helvetica;fontSize=11;fontColor=default;endArrow=none;endFill=0;" parent="1" source="W61LWBA0hqPOYTBXHAXU-181" target="W61LWBA0hqPOYTBXHAXU-173" edge="1">
          <mxGeometry relative="1" as="geometry" />
        </mxCell>
        <mxCell id="W61LWBA0hqPOYTBXHAXU-181" value="победи И2" style="ellipse;whiteSpace=wrap;html=1;align=center;fontFamily=Helvetica;fontSize=11;fontColor=default;" parent="1" vertex="1">
          <mxGeometry x="350" y="450" width="65" height="25" as="geometry" />
        </mxCell>
        <mxCell id="W61LWBA0hqPOYTBXHAXU-186" style="edgeStyle=orthogonalEdgeStyle;shape=connector;rounded=0;orthogonalLoop=1;jettySize=auto;html=1;entryX=0.5;entryY=1;entryDx=0;entryDy=0;labelBackgroundColor=default;strokeColor=default;align=center;verticalAlign=middle;fontFamily=Helvetica;fontSize=11;fontColor=default;endArrow=none;endFill=0;" parent="1" source="W61LWBA0hqPOYTBXHAXU-184" target="W61LWBA0hqPOYTBXHAXU-42" edge="1">
          <mxGeometry relative="1" as="geometry" />
        </mxCell>
        <mxCell id="W61LWBA0hqPOYTBXHAXU-184" value="тренинг" style="shape=rhombus;perimeter=rhombusPerimeter;whiteSpace=wrap;html=1;align=center;fontFamily=Helvetica;fontSize=11;fontColor=default;" parent="1" vertex="1">
          <mxGeometry x="90" y="400" width="90" height="50" as="geometry" />
        </mxCell>
        <mxCell id="W61LWBA0hqPOYTBXHAXU-187" style="edgeStyle=orthogonalEdgeStyle;shape=connector;rounded=0;orthogonalLoop=1;jettySize=auto;html=1;entryX=0.436;entryY=-0.06;entryDx=0;entryDy=0;entryPerimeter=0;labelBackgroundColor=default;strokeColor=default;align=center;verticalAlign=middle;fontFamily=Helvetica;fontSize=11;fontColor=default;endArrow=none;endFill=0;" parent="1" source="W61LWBA0hqPOYTBXHAXU-184" target="W61LWBA0hqPOYTBXHAXU-119" edge="1">
          <mxGeometry relative="1" as="geometry" />
        </mxCell>
        <mxCell id="W61LWBA0hqPOYTBXHAXU-189" value="1" style="text;html=1;strokeColor=none;fillColor=none;align=center;verticalAlign=middle;whiteSpace=wrap;rounded=0;fontSize=11;fontFamily=Helvetica;fontColor=default;" parent="1" vertex="1">
          <mxGeometry x="190" y="395" width="30" height="30" as="geometry" />
        </mxCell>
        <mxCell id="W61LWBA0hqPOYTBXHAXU-190" value="1" style="text;html=1;strokeColor=none;fillColor=none;align=center;verticalAlign=middle;whiteSpace=wrap;rounded=0;fontSize=11;fontFamily=Helvetica;fontColor=default;" parent="1" vertex="1">
          <mxGeometry x="175" y="320" width="30" height="30" as="geometry" />
        </mxCell>
        <mxCell id="W61LWBA0hqPOYTBXHAXU-191" value="1" style="text;html=1;strokeColor=none;fillColor=none;align=center;verticalAlign=middle;whiteSpace=wrap;rounded=0;fontSize=11;fontFamily=Helvetica;fontColor=default;" parent="1" vertex="1">
          <mxGeometry x="105" y="330" width="30" height="30" as="geometry" />
        </mxCell>
        <mxCell id="W61LWBA0hqPOYTBXHAXU-193" style="edgeStyle=orthogonalEdgeStyle;shape=connector;rounded=0;orthogonalLoop=1;jettySize=auto;html=1;entryX=0;entryY=0.5;entryDx=0;entryDy=0;labelBackgroundColor=default;strokeColor=default;align=center;verticalAlign=middle;fontFamily=Helvetica;fontSize=11;fontColor=default;endArrow=none;endFill=0;" parent="1" source="W61LWBA0hqPOYTBXHAXU-192" target="W61LWBA0hqPOYTBXHAXU-184" edge="1">
          <mxGeometry relative="1" as="geometry" />
        </mxCell>
        <mxCell id="W61LWBA0hqPOYTBXHAXU-192" value="дата" style="ellipse;whiteSpace=wrap;html=1;align=center;fontFamily=Helvetica;fontSize=11;fontColor=default;" parent="1" vertex="1">
          <mxGeometry x="50" y="475" width="60" height="25" as="geometry" />
        </mxCell>
        <mxCell id="W61LWBA0hqPOYTBXHAXU-197" style="edgeStyle=orthogonalEdgeStyle;shape=connector;rounded=0;orthogonalLoop=1;jettySize=auto;html=1;entryX=0;entryY=0.5;entryDx=0;entryDy=0;labelBackgroundColor=default;strokeColor=default;align=center;verticalAlign=middle;fontFamily=Helvetica;fontSize=11;fontColor=default;endArrow=none;endFill=0;" parent="1" source="W61LWBA0hqPOYTBXHAXU-194" target="W61LWBA0hqPOYTBXHAXU-192" edge="1">
          <mxGeometry relative="1" as="geometry" />
        </mxCell>
        <mxCell id="W61LWBA0hqPOYTBXHAXU-194" value="ден" style="ellipse;whiteSpace=wrap;html=1;align=center;fontFamily=Helvetica;fontSize=11;fontColor=default;" parent="1" vertex="1">
          <mxGeometry x="10" y="520" width="50" height="25" as="geometry" />
        </mxCell>
        <mxCell id="W61LWBA0hqPOYTBXHAXU-195" value="месец" style="ellipse;whiteSpace=wrap;html=1;align=center;fontFamily=Helvetica;fontSize=11;fontColor=default;" parent="1" vertex="1">
          <mxGeometry x="70" y="530" width="50" height="25" as="geometry" />
        </mxCell>
        <mxCell id="W61LWBA0hqPOYTBXHAXU-199" style="edgeStyle=orthogonalEdgeStyle;shape=connector;rounded=0;orthogonalLoop=1;jettySize=auto;html=1;entryX=1;entryY=0.5;entryDx=0;entryDy=0;labelBackgroundColor=default;strokeColor=default;align=center;verticalAlign=middle;fontFamily=Helvetica;fontSize=11;fontColor=default;endArrow=none;endFill=0;" parent="1" edge="1">
          <mxGeometry relative="1" as="geometry">
            <mxPoint x="130" y="530" as="sourcePoint" />
            <mxPoint x="110" y="485" as="targetPoint" />
            <Array as="points">
              <mxPoint x="130" y="500" />
              <mxPoint x="110" y="500" />
              <mxPoint x="110" y="508" />
              <mxPoint x="111" y="508" />
            </Array>
          </mxGeometry>
        </mxCell>
        <mxCell id="W61LWBA0hqPOYTBXHAXU-196" value="година" style="ellipse;whiteSpace=wrap;html=1;align=center;fontFamily=Helvetica;fontSize=11;fontColor=default;" parent="1" vertex="1">
          <mxGeometry x="130" y="520" width="50" height="25" as="geometry" />
        </mxCell>
        <mxCell id="W61LWBA0hqPOYTBXHAXU-198" style="edgeStyle=orthogonalEdgeStyle;shape=connector;rounded=0;orthogonalLoop=1;jettySize=auto;html=1;entryX=0.667;entryY=0.92;entryDx=0;entryDy=0;entryPerimeter=0;labelBackgroundColor=default;strokeColor=default;align=center;verticalAlign=middle;fontFamily=Helvetica;fontSize=11;fontColor=default;endArrow=none;endFill=0;" parent="1" source="W61LWBA0hqPOYTBXHAXU-195" target="W61LWBA0hqPOYTBXHAXU-192" edge="1">
          <mxGeometry relative="1" as="geometry" />
        </mxCell>
        <mxCell id="tZ-yufHmO-T_GeRNX846-3" value="Гледачи" style="whiteSpace=wrap;html=1;align=center;" vertex="1" parent="1">
          <mxGeometry x="90" y="910" width="100" height="40" as="geometry" />
        </mxCell>
        <mxCell id="tZ-yufHmO-T_GeRNX846-6" style="edgeStyle=orthogonalEdgeStyle;rounded=0;orthogonalLoop=1;jettySize=auto;html=1;entryX=0.25;entryY=1;entryDx=0;entryDy=0;" edge="1" parent="1" source="tZ-yufHmO-T_GeRNX846-4" target="tZ-yufHmO-T_GeRNX846-3">
          <mxGeometry relative="1" as="geometry" />
        </mxCell>
        <mxCell id="tZ-yufHmO-T_GeRNX846-4" value="име" style="ellipse;whiteSpace=wrap;html=1;align=center;" vertex="1" parent="1">
          <mxGeometry y="970" width="80" height="50" as="geometry" />
        </mxCell>
        <mxCell id="tZ-yufHmO-T_GeRNX846-9" style="edgeStyle=orthogonalEdgeStyle;rounded=0;orthogonalLoop=1;jettySize=auto;html=1;entryX=1;entryY=0.5;entryDx=0;entryDy=0;" edge="1" parent="1" source="tZ-yufHmO-T_GeRNX846-7" target="tZ-yufHmO-T_GeRNX846-3">
          <mxGeometry relative="1" as="geometry" />
        </mxCell>
        <mxCell id="tZ-yufHmO-T_GeRNX846-7" value="презиме" style="ellipse;whiteSpace=wrap;html=1;align=center;" vertex="1" parent="1">
          <mxGeometry x="165" y="960" width="80" height="50" as="geometry" />
        </mxCell>
        <mxCell id="tZ-yufHmO-T_GeRNX846-14" style="edgeStyle=orthogonalEdgeStyle;shape=connector;rounded=0;orthogonalLoop=1;jettySize=auto;html=1;labelBackgroundColor=default;strokeColor=default;align=center;verticalAlign=middle;fontFamily=Helvetica;fontSize=11;fontColor=default;endArrow=none;endFill=0;" edge="1" parent="1" source="tZ-yufHmO-T_GeRNX846-10" target="tZ-yufHmO-T_GeRNX846-15">
          <mxGeometry relative="1" as="geometry">
            <mxPoint x="210" y="870" as="targetPoint" />
          </mxGeometry>
        </mxCell>
        <mxCell id="tZ-yufHmO-T_GeRNX846-10" value="спонзор" style="whiteSpace=wrap;html=1;align=center;" vertex="1" parent="1">
          <mxGeometry x="280" y="870" width="100" height="40" as="geometry" />
        </mxCell>
        <mxCell id="tZ-yufHmO-T_GeRNX846-12" style="edgeStyle=orthogonalEdgeStyle;rounded=0;orthogonalLoop=1;jettySize=auto;html=1;entryX=0.25;entryY=0;entryDx=0;entryDy=0;endArrow=none;endFill=0;" edge="1" parent="1" source="tZ-yufHmO-T_GeRNX846-11" target="tZ-yufHmO-T_GeRNX846-10">
          <mxGeometry relative="1" as="geometry" />
        </mxCell>
        <mxCell id="tZ-yufHmO-T_GeRNX846-13" style="edgeStyle=orthogonalEdgeStyle;shape=connector;rounded=0;orthogonalLoop=1;jettySize=auto;html=1;entryX=0.75;entryY=1;entryDx=0;entryDy=0;labelBackgroundColor=default;strokeColor=default;align=center;verticalAlign=middle;fontFamily=Helvetica;fontSize=11;fontColor=default;endArrow=none;endFill=0;" edge="1" parent="1" source="tZ-yufHmO-T_GeRNX846-11" target="W61LWBA0hqPOYTBXHAXU-145">
          <mxGeometry relative="1" as="geometry" />
        </mxCell>
        <mxCell id="tZ-yufHmO-T_GeRNX846-11" value="спонзорира турнир" style="shape=rhombus;perimeter=rhombusPerimeter;whiteSpace=wrap;html=1;align=center;" vertex="1" parent="1">
          <mxGeometry x="250" y="770" width="90" height="60" as="geometry" />
        </mxCell>
        <mxCell id="tZ-yufHmO-T_GeRNX846-16" style="edgeStyle=orthogonalEdgeStyle;shape=connector;rounded=0;orthogonalLoop=1;jettySize=auto;html=1;entryX=0.25;entryY=0;entryDx=0;entryDy=0;labelBackgroundColor=default;strokeColor=default;align=center;verticalAlign=middle;fontFamily=Helvetica;fontSize=11;fontColor=default;endArrow=none;endFill=0;" edge="1" parent="1" source="tZ-yufHmO-T_GeRNX846-15" target="tZ-yufHmO-T_GeRNX846-3">
          <mxGeometry relative="1" as="geometry" />
        </mxCell>
        <mxCell id="tZ-yufHmO-T_GeRNX846-15" value="бесплатен билет" style="shape=rhombus;perimeter=rhombusPerimeter;whiteSpace=wrap;html=1;align=center;fontFamily=Helvetica;fontSize=11;fontColor=default;" vertex="1" parent="1">
          <mxGeometry x="150" y="830" width="80" height="40" as="geometry" />
        </mxCell>
        <mxCell id="tZ-yufHmO-T_GeRNX846-21" value="М" style="text;html=1;strokeColor=none;fillColor=none;align=center;verticalAlign=middle;whiteSpace=wrap;rounded=0;fontSize=11;fontFamily=Helvetica;fontColor=default;" vertex="1" parent="1">
          <mxGeometry x="225" y="860" width="40" height="20" as="geometry" />
        </mxCell>
        <mxCell id="tZ-yufHmO-T_GeRNX846-22" value="N" style="text;html=1;strokeColor=none;fillColor=none;align=center;verticalAlign=middle;whiteSpace=wrap;rounded=0;fontSize=11;fontFamily=Helvetica;fontColor=default;" vertex="1" parent="1">
          <mxGeometry x="125" y="870" width="40" height="20" as="geometry" />
        </mxCell>
        <mxCell id="tZ-yufHmO-T_GeRNX846-25" value="M" style="text;html=1;strokeColor=none;fillColor=none;align=center;verticalAlign=middle;whiteSpace=wrap;rounded=0;fontSize=11;fontFamily=Helvetica;fontColor=default;" vertex="1" parent="1">
          <mxGeometry x="245" y="700" width="60" height="30" as="geometry" />
        </mxCell>
        <mxCell id="tZ-yufHmO-T_GeRNX846-26" value="N" style="text;html=1;strokeColor=none;fillColor=none;align=center;verticalAlign=middle;whiteSpace=wrap;rounded=0;fontSize=11;fontFamily=Helvetica;fontColor=default;" vertex="1" parent="1">
          <mxGeometry x="294" y="830" width="40" height="20" as="geometry" />
        </mxCell>
        <mxCell id="tZ-yufHmO-T_GeRNX846-27" value="Ранг" style="whiteSpace=wrap;html=1;align=center;fontFamily=Helvetica;fontSize=11;fontColor=default;" vertex="1" parent="1">
          <mxGeometry x="457.5" y="420" width="55" height="30" as="geometry" />
        </mxCell>
        <mxCell id="tZ-yufHmO-T_GeRNX846-32" style="edgeStyle=orthogonalEdgeStyle;shape=connector;rounded=0;orthogonalLoop=1;jettySize=auto;html=1;entryX=0.5;entryY=0;entryDx=0;entryDy=0;labelBackgroundColor=default;strokeColor=default;align=center;verticalAlign=middle;fontFamily=Helvetica;fontSize=11;fontColor=default;endArrow=none;endFill=0;" edge="1" parent="1" source="tZ-yufHmO-T_GeRNX846-30" target="tZ-yufHmO-T_GeRNX846-27">
          <mxGeometry relative="1" as="geometry" />
        </mxCell>
        <mxCell id="tZ-yufHmO-T_GeRNX846-30" value="рангира" style="shape=rhombus;perimeter=rhombusPerimeter;whiteSpace=wrap;html=1;align=center;fontFamily=Helvetica;fontSize=11;fontColor=default;" vertex="1" parent="1">
          <mxGeometry x="460" y="345" width="60" height="40" as="geometry" />
        </mxCell>
        <mxCell id="tZ-yufHmO-T_GeRNX846-31" style="edgeStyle=orthogonalEdgeStyle;shape=connector;rounded=0;orthogonalLoop=1;jettySize=auto;html=1;entryX=0.903;entryY=1.007;entryDx=0;entryDy=0;entryPerimeter=0;labelBackgroundColor=default;strokeColor=default;align=center;verticalAlign=middle;fontFamily=Helvetica;fontSize=11;fontColor=default;endArrow=none;endFill=0;" edge="1" parent="1" source="tZ-yufHmO-T_GeRNX846-30" target="W61LWBA0hqPOYTBXHAXU-41">
          <mxGeometry relative="1" as="geometry" />
        </mxCell>
        <mxCell id="tZ-yufHmO-T_GeRNX846-35" style="edgeStyle=orthogonalEdgeStyle;shape=connector;rounded=0;orthogonalLoop=1;jettySize=auto;html=1;entryX=0.75;entryY=1;entryDx=0;entryDy=0;labelBackgroundColor=default;strokeColor=default;align=center;verticalAlign=middle;fontFamily=Helvetica;fontSize=11;fontColor=default;endArrow=none;endFill=0;" edge="1" parent="1" source="tZ-yufHmO-T_GeRNX846-34" target="tZ-yufHmO-T_GeRNX846-27">
          <mxGeometry relative="1" as="geometry" />
        </mxCell>
        <mxCell id="tZ-yufHmO-T_GeRNX846-36" style="edgeStyle=orthogonalEdgeStyle;shape=connector;rounded=0;orthogonalLoop=1;jettySize=auto;html=1;entryX=0.25;entryY=0;entryDx=0;entryDy=0;labelBackgroundColor=default;strokeColor=default;align=center;verticalAlign=middle;fontFamily=Helvetica;fontSize=11;fontColor=default;endArrow=none;endFill=0;" edge="1" parent="1" source="tZ-yufHmO-T_GeRNX846-34" target="W61LWBA0hqPOYTBXHAXU-86">
          <mxGeometry relative="1" as="geometry">
            <Array as="points">
              <mxPoint x="655" y="548" />
              <mxPoint x="620" y="548" />
              <mxPoint x="620" y="590" />
            </Array>
          </mxGeometry>
        </mxCell>
        <mxCell id="tZ-yufHmO-T_GeRNX846-34" value="парична награда" style="shape=rhombus;perimeter=rhombusPerimeter;whiteSpace=wrap;html=1;align=center;fontFamily=Helvetica;fontSize=11;fontColor=default;" vertex="1" parent="1">
          <mxGeometry x="620" y="475" width="80" height="45" as="geometry" />
        </mxCell>
        <mxCell id="tZ-yufHmO-T_GeRNX846-38" style="edgeStyle=orthogonalEdgeStyle;shape=connector;rounded=0;orthogonalLoop=1;jettySize=auto;html=1;entryX=0.5;entryY=0;entryDx=0;entryDy=0;labelBackgroundColor=default;strokeColor=default;align=center;verticalAlign=middle;fontFamily=Helvetica;fontSize=11;fontColor=default;endArrow=none;endFill=0;" edge="1" parent="1" source="tZ-yufHmO-T_GeRNX846-37" target="tZ-yufHmO-T_GeRNX846-34">
          <mxGeometry relative="1" as="geometry" />
        </mxCell>
        <mxCell id="tZ-yufHmO-T_GeRNX846-37" value="износ" style="ellipse;whiteSpace=wrap;html=1;align=center;fontFamily=Helvetica;fontSize=11;fontColor=default;" vertex="1" parent="1">
          <mxGeometry x="640" y="440" width="40" height="20" as="geometry" />
        </mxCell>
        <mxCell id="tZ-yufHmO-T_GeRNX846-39" value="време/место" style="ellipse;whiteSpace=wrap;html=1;align=center;fontFamily=Helvetica;fontSize=11;fontColor=default;" vertex="1" parent="1">
          <mxGeometry x="110" y="810" width="40" height="30" as="geometry" />
        </mxCell>
        <mxCell id="tZ-yufHmO-T_GeRNX846-40" style="edgeStyle=orthogonalEdgeStyle;shape=connector;rounded=0;orthogonalLoop=1;jettySize=auto;html=1;entryX=0.193;entryY=0.718;entryDx=0;entryDy=0;entryPerimeter=0;labelBackgroundColor=default;strokeColor=default;align=center;verticalAlign=middle;fontFamily=Helvetica;fontSize=11;fontColor=default;endArrow=none;endFill=0;" edge="1" parent="1" source="tZ-yufHmO-T_GeRNX846-39" target="tZ-yufHmO-T_GeRNX846-15">
          <mxGeometry relative="1" as="geometry" />
        </mxCell>
        <mxCell id="tZ-yufHmO-T_GeRNX846-42" style="edgeStyle=orthogonalEdgeStyle;shape=connector;rounded=0;orthogonalLoop=1;jettySize=auto;html=1;entryX=1;entryY=0.5;entryDx=0;entryDy=0;labelBackgroundColor=default;strokeColor=default;align=center;verticalAlign=middle;fontFamily=Helvetica;fontSize=11;fontColor=default;endArrow=none;endFill=0;" edge="1" parent="1" source="tZ-yufHmO-T_GeRNX846-41" target="tZ-yufHmO-T_GeRNX846-34">
          <mxGeometry relative="1" as="geometry" />
        </mxCell>
        <mxCell id="tZ-yufHmO-T_GeRNX846-41" value="ТИП" style="whiteSpace=wrap;html=1;align=center;fontFamily=Helvetica;fontSize=11;fontColor=default;" vertex="1" parent="1">
          <mxGeometry x="740" y="482.5" width="60" height="30" as="geometry" />
        </mxCell>
        <mxCell id="tZ-yufHmO-T_GeRNX846-45" style="edgeStyle=orthogonalEdgeStyle;shape=connector;rounded=0;orthogonalLoop=1;jettySize=auto;html=1;entryX=1;entryY=1;entryDx=0;entryDy=0;labelBackgroundColor=default;strokeColor=default;align=center;verticalAlign=middle;fontFamily=Helvetica;fontSize=11;fontColor=default;endArrow=none;endFill=0;" edge="1" parent="1" source="tZ-yufHmO-T_GeRNX846-44" target="tZ-yufHmO-T_GeRNX846-11">
          <mxGeometry relative="1" as="geometry" />
        </mxCell>
        <mxCell id="tZ-yufHmO-T_GeRNX846-44" value="наградени гледачи" style="ellipse;shape=doubleEllipse;margin=3;whiteSpace=wrap;html=1;align=center;fontFamily=Helvetica;fontSize=11;fontColor=default;" vertex="1" parent="1">
          <mxGeometry x="330" y="820" width="70" height="40" as="geometry" />
        </mxCell>
      </root>
    </mxGraphModel>
  </diagram>
</mxfile>
